# Wavefront Obj file
# 
# verts: 86 uv-s: 141
mtllib stone3_uv.mtl

g RetopoGroup1

v -31.864456 28.959156 -4.385789
v -27.660137 14.924736 1.452726
v -39.152020 15.441253 -14.948442
v -39.088711 29.919609 -14.709935
v -27.783209 -7.626966 1.385477
v -39.285717 -8.190233 -14.973899
v -33.533459 -11.028795 -6.937370
v -49.326576 26.661634 -16.432224
v -42.622952 32.177483 -14.868539
v -41.738163 -8.820000 -15.093369
v -54.049461 20.859304 -17.297012
v -56.687923 12.314882 -17.973454
v -61.525486 5.338287 -18.899487
v -56.107914 39.167145 -0.659630
v -63.415600 -2.307467 -18.969494
v -58.728439 23.943426 -14.074364
v -69.581360 24.024105 -8.081545
v -63.057426 31.814415 -4.053568
v -71.190651 17.438715 -8.091086
v -71.656319 21.774088 -7.272454
v -71.289597 -2.320288 -11.327075
v -67.022385 -8.850439 -10.193443
v -70.504364 -5.023195 -11.872899
v -69.342628 -7.955584 -8.909950
v -56.126438 -11.683821 -8.075003
v -46.396770 -13.390211 -8.348485
v -39.384186 -13.474377 -4.820821
v -54.305382 42.047447 1.586573
v -49.934032 42.129646 -1.036784
v -53.969795 42.679329 4.505390
v -48.313198 43.148895 4.728795
v -38.586082 39.267258 11.201450
v -37.893700 36.840290 5.753957
v -34.073437 31.756746 -0.759076
v -38.326355 37.349045 13.876013
v -37.452045 34.378441 5.832268
v -35.244686 32.204296 3.929812
v -35.289162 32.047729 4.555625
v -36.115337 32.787819 -1.854686
v -36.729641 33.789986 -0.390874
v -33.978809 28.584724 3.964628
v -34.271873 21.236494 19.916687
v -30.821203 14.329547 19.522079
v -38.434128 33.983315 18.406509
v -59.818092 36.991417 11.301044
v -51.529041 31.416182 20.208092
v -63.620106 32.500210 16.722143
v -62.893036 31.181244 18.517105
v -55.100086 30.113359 21.341015
v -53.929226 29.422148 21.814854
v -44.619740 31.218910 20.925358
v -45.205009 4.103775 21.068104
v -40.701328 29.417612 20.604385
v -33.815117 4.107850 20.042358
v -62.672562 24.351101 22.584988
v -61.972782 0.368474 22.300625
v -45.293163 -0.354031 21.052856
v -34.514900 -1.378948 18.952351
v -34.493847 -1.306692 19.006020
v -29.090775 -6.655893 9.864499
v -30.334028 6.965925 16.976831
v -66.806778 28.711910 12.521606
v -67.434837 26.732798 12.621265
v -60.640224 35.577042 8.194422
v -55.322063 41.423409 3.740686
v -73.942032 19.874702 -1.411658
v -60.814476 33.756256 6.925508
v -66.964828 26.440594 9.892747
v -68.221397 23.543074 10.754305
v -69.702118 25.702780 7.644347
v -67.704849 27.888266 6.043436
v -73.904312 14.954324 -1.139083
v -74.245750 4.890828 -2.136722
v -71.171448 10.465985 -8.514997
v -69.252975 -7.676186 -2.095496
v -69.453262 -5.327238 5.704566
v -70.331535 -3.969439 6.480554
v -66.579422 -3.742748 12.561651
v -67.379204 -3.104111 12.858993
v -62.795319 -4.230690 12.918672
v -66.781189 -2.033632 14.112503
v -65.595566 -2.740227 16.455839
v -63.814770 -2.163918 19.251408
v -51.850990 -5.824568 13.878901
v -41.218548 -8.574385 10.571224
v -36.425255 -10.314062 7.489761
# 86 positions

vt 0.806993 0.098875
vt 0.682563 0.150640
vt 0.687142 0.005226
vt 0.815509 0.007340
vt 0.482617 0.150044
vt 0.477623 0.005000
vt 0.452456 0.076253
vt 0.346302 0.486825
vt 0.436510 0.387344
vt 0.377076 0.338440
vt 0.345740 0.358459
vt 0.347487 0.696345
vt 0.369231 0.701928
vt 0.478384 0.438788
vt 0.501777 0.514544
vt 0.634488 0.430678
vt 0.616092 0.410729
vt 0.561425 0.644187
vt 0.544668 0.576399
vt 0.519868 0.411444
vt 0.630360 0.469116
vt 0.631237 0.644301
vt 0.630190 0.530937
vt 0.624275 0.668265
vt 0.370906 0.320921
vt 0.293096 0.352899
vt 0.281716 0.373470
vt 0.307986 0.383770
vt 0.336539 0.128726
vt 0.274314 0.256294
vt 0.276738 0.170030
vt 0.335480 0.106982
vt 0.245461 0.107856
vt 0.264228 0.055982
vt 0.558250 0.341659
vt 0.496634 0.276469
vt 0.033083 0.822095
vt 0.159060 0.702535
vt 0.178976 0.718517
vt 0.155716 0.757274
vt 0.204854 0.721492
vt 0.206835 0.771644
vt 0.264223 0.857886
vt 0.215924 0.864025
vt 0.126024 0.917481
vt 0.034490 0.853429
vt 0.158180 0.897896
vt 0.898386 0.237074
vt 0.881379 0.260786
vt 0.855041 0.189470
vt 0.876868 0.188775
vt 0.834377 0.178151
vt 0.835765 0.172602
vt 0.840939 0.121316
vt 0.849824 0.134295
vt 0.803674 0.172911
vt 0.831797 0.131030
vt 0.161444 0.874345
vt 0.148466 0.879792
vt 0.738523 0.314344
vt 0.677286 0.310845
vt 0.851538 0.300954
vt 0.265106 0.669641
vt 0.344076 0.743132
vt 0.313169 0.635931
vt 0.329084 0.642378
vt 0.105755 0.672077
vt 0.005000 0.669994
vt 0.074093 0.660526
vt 0.084475 0.654398
vt 0.167013 0.670328
vt 0.350435 0.804391
vt 0.328103 0.859233
vt 0.287935 0.860189
vt 0.258759 0.581823
vt 0.221855 0.694838
vt 0.201754 0.654358
vt 0.161824 0.429923
vt 0.262809 0.429959
vt 0.289351 0.520585
vt 0.006955 0.609438
vt 0.013160 0.396805
vt 0.161042 0.390399
vt 0.256604 0.381312
vt 0.256791 0.381953
vt 0.586659 0.315458
vt 0.538653 0.306270
vt 0.491226 0.225220
vt 0.611999 0.288279
vt 0.648009 0.653276
vt 0.669903 0.706432
vt 0.687449 0.705549
vt 0.708565 0.617209
vt 0.636314 0.669190
vt 0.596496 0.717254
vt 0.609036 0.744798
vt 0.546066 0.777505
vt 0.557201 0.784285
vt 0.625179 0.756048
vt 0.690039 0.729740
vt 0.715730 0.722102
vt 0.677205 0.763869
vt 0.696582 0.749675
vt 0.551669 0.803384
vt 0.577205 0.823299
vt 0.642395 0.853390
vt 0.711464 0.889102
vt 0.748255 0.829966
vt 0.731414 0.881929
vt 0.769853 0.889187
vt 0.791879 0.827550
vt 0.881104 0.836395
vt 0.831672 0.892945
vt 0.945037 0.917877
vt 0.969002 0.922717
vt 0.995000 0.896447
vt 0.992523 0.836029
vt 0.971697 0.766873
vt 0.959658 0.759993
vt 0.957650 0.706077
vt 0.951988 0.703441
vt 0.091347 0.348971
vt 0.088182 0.315421
vt 0.077596 0.350760
vt 0.088711 0.356062
vt 0.056821 0.340248
vt 0.942497 0.692327
vt 0.948760 0.671551
vt 0.921198 0.619731
vt 0.943651 0.646765
vt 0.005000 0.308129
vt 0.032035 0.324460
vt 0.079667 0.218388
vt 0.016063 0.160245
vt 0.108994 0.124119
vt 0.034686 0.064684
vt 0.136315 0.081621
vt 0.115260 0.016593
vt 0.190436 0.005000
vt 0.152142 0.374451
vt 0.221299 0.372675
# 141 texture coordinates

vn 0.865112 0.433054 -0.253071
vn 0.977746 0.136541 -0.159276
vn 0.516951 0.002755 -0.856011
vn 0.556084 0.372813 -0.742820
vn 0.867481 -0.483326 -0.117784
vn 0.458318 -0.385983 -0.800601
vn 0.672616 -0.624635 -0.396761
vn -0.125373 0.353578 -0.926965
vn 0.170130 0.617298 -0.768114
vn 0.128347 -0.557040 -0.820508
vn -0.151035 0.176070 -0.972722
vn -0.111007 0.131656 -0.985061
vn -0.278333 0.118965 -0.953089
vn -0.557138 0.703541 -0.441166
vn -0.315984 -0.284771 -0.905019
vn -0.413141 0.441164 -0.796674
vn -0.640893 0.528664 -0.556570
vn -0.587772 0.701880 -0.402354
vn -0.761751 0.136333 -0.633364
vn -0.789465 0.371375 -0.488697
vn -0.902714 -0.100962 -0.418227
vn -0.306360 -0.880180 -0.362529
vn -0.799379 -0.407175 -0.441816
vn -0.653189 -0.737886 -0.169906
vn -0.169843 -0.970692 -0.170029
vn -0.072914 -0.974252 -0.213346
vn 0.142352 -0.989331 -0.030975
vn -0.452975 0.832332 -0.319432
vn 0.044884 0.886753 -0.460059
vn -0.356714 0.921600 0.153000
vn 0.168160 0.978919 0.115933
vn 0.593621 0.763867 0.253223
vn 0.824147 0.550604 -0.132729
vn 0.785114 0.618240 0.037085
vn 0.565957 0.684373 0.459702
vn 0.871457 0.489328 -0.033481
vn 0.787450 0.615505 0.032811
vn 0.872867 0.486201 0.041383
vn 0.634735 0.744703 -0.206225
vn 0.741047 0.657225 -0.137491
vn 0.895788 0.401500 0.190687
vn 0.617620 0.237757 0.749678
vn 0.713497 0.128869 0.688705
vn 0.503880 0.589559 0.631289
vn -0.487819 0.818325 0.303935
vn -0.066232 0.743275 0.665699
vn -0.621052 0.647371 0.441820
vn -0.505741 0.546794 0.667265
vn -0.148227 0.642449 0.751856
vn -0.014069 0.349501 0.936830
vn 0.040789 0.441926 0.896124
vn 0.086631 -0.002834 0.996236
vn 0.227483 0.162022 0.960208
vn 0.446238 -0.148122 0.882571
vn -0.490980 0.151357 0.857922
vn -0.374565 -0.348943 0.859034
vn 0.063374 -0.443049 0.894254
vn 0.124055 -0.583123 0.802856
vn 0.456590 -0.237270 0.857454
vn 0.723788 -0.564724 0.396507
vn 0.896416 -0.110174 0.429303
vn -0.902889 0.429253 0.023111
vn -0.957665 0.217370 0.188755
vn -0.795762 0.555310 -0.241648
vn -0.738834 0.667158 -0.094998
vn -0.969908 0.243471 -0.000569
vn -0.791563 0.610736 0.020737
vn -0.818778 0.565794 0.097367
vn -0.913959 0.147556 0.378030
vn -0.821854 0.456495 0.340834
vn -0.712468 0.685131 0.151603
vn -0.998809 0.010626 0.047611
vn -0.996836 -0.076096 0.022967
vn -0.838667 0.074822 -0.539480
vn -0.620379 -0.772516 0.135454
vn -0.581176 -0.776088 0.244788
vn -0.876263 -0.365865 0.313539
vn -0.295040 -0.807362 0.510997
vn -0.683685 -0.446317 0.577387
vn -0.193997 -0.934922 0.297130
vn -0.784303 -0.367798 0.499593
vn -0.672564 -0.623928 0.397959
vn -0.512296 -0.613728 0.600742
vn -0.074588 -0.888948 0.451893
vn -0.025466 -0.882497 0.469629
vn 0.146865 -0.926121 0.347464
# 86 normals

usemtl Default
f 1/1/1 2/2/2 3/3/3 4/4/4
f 2/2/2 5/5/5 6/6/6 3/3/3
f 5/5/5 7/7/7 6/6/6
f 3/8/3 8/9/8 9/10/9 4/11/4
f 3/8/3 6/12/6 10/13/10 8/9/8
f 8/9/8 10/13/10 11/14/11
f 10/13/10 12/15/12 11/14/11
f 12/15/12 20/16/20 17/17/17
f 10/13/10 15/18/15 13/19/13
f 8/9/8 11/14/11 16/20/16
f 11/14/11 12/15/12 17/17/17 16/20/16
f 13/19/13 12/15/12 10/13/10
f 13/19/13 19/21/19 20/16/20 12/15/12
f 13/19/13 15/18/15 21/22/21 74/23/74
f 15/18/15 23/24/23 21/22/21
f 15/25/15 22/26/22 24/27/24 23/28/23
f 15/25/15 10/29/10 25/30/25 22/26/22
f 10/29/10 26/31/26 25/30/25
f 10/29/10 6/32/6 27/33/27 26/31/26
f 6/32/6 7/34/7 27/33/27
f 16/20/16 17/17/17 18/35/18 8/9/8
f 8/9/8 18/35/18 14/36/14 9/10/9
f 9/37/9 14/38/14 28/39/28 29/40/29
f 28/39/28 30/41/30 31/42/31 29/40/29
f 29/40/29 31/42/31 32/43/32 33/44/33
f 29/40/29 33/44/33 9/37/9
f 1/45/1 4/46/4 9/37/9 34/47/34
f 32/48/32 35/49/35 36/50/36 33/51/33
f 35/49/35 38/52/38 37/53/37 36/50/36
f 36/50/36 39/54/39 40/55/40
f 36/50/36 37/53/37 39/54/39
f 37/53/37 41/56/41 34/57/34 39/54/39
f 33/44/33 40/58/40 9/37/9
f 9/37/9 40/58/40 39/59/39
f 34/47/34 9/37/9 39/59/39
f 40/55/40 33/51/33 36/50/36
f 34/57/34 41/56/41 2/2/2 1/1/1
f 2/2/2 41/56/41 42/60/42 43/61/43
f 41/56/41 38/52/38 44/62/44 42/60/42
f 38/52/38 35/49/35 44/62/44
f 37/53/37 38/52/38 41/56/41
f 30/41/30 45/63/45 46/64/46 31/42/31
f 45/63/45 47/65/47 48/66/48 46/64/46
f 46/67/46 48/68/48 49/69/49
f 46/67/46 49/69/49 50/70/50 51/71/51
f 46/64/46 51/72/51 32/43/32 31/42/31
f 32/43/32 51/72/51 44/73/44 35/74/35
f 42/75/42 44/76/44 53/77/53
f 44/76/44 51/71/51 53/77/53
f 42/75/42 52/78/52 54/79/54 43/80/43
f 42/75/42 53/77/53 51/71/51 52/78/52
f 51/71/51 50/70/50 55/81/55 52/78/52
f 50/70/50 49/69/49 48/68/48 55/81/55
f 52/78/52 55/81/55 56/82/56 57/83/57
f 52/78/52 57/83/57 54/79/54
f 54/79/54 57/83/57 58/84/58 59/85/59
f 54/86/54 59/87/59 60/88/60 61/89/61
f 54/86/54 61/89/61 43/61/43
f 43/61/43 61/89/61 2/2/2
f 2/2/2 61/89/61 60/88/60 5/5/5
f 48/90/48 62/91/62 63/92/63 55/93/55
f 48/90/48 47/94/47 62/91/62
f 47/94/47 45/95/45 64/96/64 62/91/62
f 45/95/45 30/97/30 65/98/65 64/96/64
f 64/96/64 65/98/65 67/99/67
f 64/96/64 67/99/67 68/100/68 62/91/62
f 62/91/62 68/100/68 69/101/69 63/92/63
f 71/102/71 70/103/70 69/101/69 68/100/68
f 68/100/68 67/99/67 71/102/71
f 67/99/67 65/98/65 71/102/71
f 30/97/30 28/104/28 14/105/14 65/98/65
f 65/98/65 14/105/14 18/106/18 71/102/71
f 18/106/18 17/107/17 66/108/66 71/102/71
f 17/107/17 20/109/20 66/108/66
f 66/108/66 70/103/70 71/102/71
f 20/109/20 19/110/19 72/111/72 66/108/66
f 73/112/73 72/111/72 19/110/19 74/113/74
f 74/113/74 21/114/21 73/112/73
f 21/114/21 23/115/23 24/116/24
f 21/114/21 24/116/24 75/117/75 73/112/73
f 73/112/73 75/117/75 76/118/76 77/119/77
f 76/118/76 78/120/78 79/121/79 77/119/77
f 78/122/78 80/123/80 81/124/81 79/125/79
f 80/123/80 82/126/82 81/124/81
f 73/112/73 77/119/77 69/101/69 72/111/72
f 69/101/69 70/103/70 66/108/66 72/111/72
f 63/92/63 69/101/69 77/119/77 79/121/79
f 79/121/79 81/127/81 55/93/55 63/92/63
f 55/93/55 81/127/81 82/128/82 56/129/56
f 56/129/56 82/128/82 83/130/83
f 56/131/56 83/132/83 84/133/84 57/134/57
f 57/134/57 84/133/84 85/135/85 58/136/58
f 58/136/58 85/135/85 86/137/86 60/138/60
f 60/138/60 86/137/86 7/34/7 5/139/5
f 7/34/7 86/137/86 27/33/27
f 85/135/85 26/31/26 27/33/27 86/137/86
f 26/31/26 85/135/85 84/133/84 25/30/25
f 25/30/25 84/133/84 80/123/80 78/122/78
f 80/123/80 84/133/84 83/132/83 82/126/82
f 25/30/25 78/122/78 76/140/76 75/141/75
f 24/27/24 22/26/22 25/30/25 75/141/75
f 74/23/74 19/21/19 13/19/13

# 102 faces
